<?xml version="1.0" encoding="UTF-8"?>
<!-- Do not edit this file with editors other than draw.io -->
<!DOCTYPE svg PUBLIC "-//W3C//DTD SVG 1.1//EN" "http://www.w3.org/Graphics/SVG/1.1/DTD/svg11.dtd">
<svg xmlns="http://www.w3.org/2000/svg" style="background: transparent; background-color: transparent; color-scheme: light dark;" xmlns:xlink="http://www.w3.org/1999/xlink" version="1.1" width="615px" height="142px" viewBox="-0.5 -0.5 615 142" content="&lt;mxfile host=&quot;app.diagrams.net&quot; agent=&quot;Mozilla/5.0 (X11; Linux x86_64; rv:128.0) Gecko/20100101 Firefox/128.0&quot; version=&quot;26.2.14&quot;&gt;&#xA;  &lt;diagram name=&quot;Page-1&quot; id=&quot;JKQlKWG3siBJuJNEbspd&quot;&gt;&#xA;    &lt;mxGraphModel dx=&quot;1076&quot; dy=&quot;616&quot; grid=&quot;1&quot; gridSize=&quot;10&quot; guides=&quot;1&quot; tooltips=&quot;1&quot; connect=&quot;1&quot; arrows=&quot;1&quot; fold=&quot;1&quot; page=&quot;1&quot; pageScale=&quot;1&quot; pageWidth=&quot;850&quot; pageHeight=&quot;1100&quot; math=&quot;0&quot; shadow=&quot;0&quot;&gt;&#xA;      &lt;root&gt;&#xA;        &lt;mxCell id=&quot;0&quot; /&gt;&#xA;        &lt;mxCell id=&quot;1&quot; parent=&quot;0&quot; /&gt;&#xA;        &lt;mxCell id=&quot;5jmNFab9z2XsegrAhkRg-1&quot; value=&quot;&quot; style=&quot;image;html=1;image=img/lib/clip_art/computers/Laptop_128x128.png&quot; vertex=&quot;1&quot; parent=&quot;1&quot;&gt;&#xA;          &lt;mxGeometry x=&quot;170&quot; y=&quot;165&quot; width=&quot;120&quot; height=&quot;120&quot; as=&quot;geometry&quot; /&gt;&#xA;        &lt;/mxCell&gt;&#xA;        &lt;mxCell id=&quot;5jmNFab9z2XsegrAhkRg-2&quot; value=&quot;&quot; style=&quot;image;points=[];aspect=fixed;html=1;align=center;shadow=0;dashed=0;image=img/lib/allied_telesis/computer_and_terminals/Server_Desktop.svg;&quot; vertex=&quot;1&quot; parent=&quot;1&quot;&gt;&#xA;          &lt;mxGeometry x=&quot;690&quot; y=&quot;150&quot; width=&quot;94.67&quot; height=&quot;120&quot; as=&quot;geometry&quot; /&gt;&#xA;        &lt;/mxCell&gt;&#xA;        &lt;mxCell id=&quot;5jmNFab9z2XsegrAhkRg-3&quot; value=&quot;&quot; style=&quot;shape=mxgraph.signs.tech.usb;html=1;pointerEvents=1;fillColor=#000000;strokeColor=none;verticalLabelPosition=bottom;verticalAlign=top;align=center;rotation=90;&quot; vertex=&quot;1&quot; parent=&quot;1&quot;&gt;&#xA;          &lt;mxGeometry x=&quot;660&quot; y=&quot;175&quot; width=&quot;14.4&quot; height=&quot;32.81&quot; as=&quot;geometry&quot; /&gt;&#xA;        &lt;/mxCell&gt;&#xA;        &lt;mxCell id=&quot;5jmNFab9z2XsegrAhkRg-4&quot; value=&quot;&quot; style=&quot;endArrow=none;html=1;rounded=0;&quot; edge=&quot;1&quot; parent=&quot;1&quot;&gt;&#xA;          &lt;mxGeometry width=&quot;50&quot; height=&quot;50&quot; relative=&quot;1&quot; as=&quot;geometry&quot;&gt;&#xA;            &lt;mxPoint x=&quot;610&quot; y=&quot;205&quot; as=&quot;sourcePoint&quot; /&gt;&#xA;            &lt;mxPoint x=&quot;695.97&quot; y=&quot;205&quot; as=&quot;targetPoint&quot; /&gt;&#xA;          &lt;/mxGeometry&gt;&#xA;        &lt;/mxCell&gt;&#xA;        &lt;mxCell id=&quot;5jmNFab9z2XsegrAhkRg-6&quot; value=&quot;&quot; style=&quot;shape=image;verticalLabelPosition=bottom;labelBackgroundColor=default;verticalAlign=top;aspect=fixed;imageAspect=0;image=https://www.espressif.com/sites/default/files/dev-board/ESP32-S3-DevKitC-1%20%E5%A4%A7.png;rotation=-90;&quot; vertex=&quot;1&quot; parent=&quot;1&quot;&gt;&#xA;          &lt;mxGeometry x=&quot;460&quot; y=&quot;121.72&quot; width=&quot;133.82&quot; height=&quot;196.56&quot; as=&quot;geometry&quot; /&gt;&#xA;        &lt;/mxCell&gt;&#xA;        &lt;mxCell id=&quot;5jmNFab9z2XsegrAhkRg-8&quot; value=&quot;&quot; style=&quot;html=1;verticalLabelPosition=bottom;align=center;labelBackgroundColor=#ffffff;verticalAlign=top;strokeWidth=2;strokeColor=#0080F0;shadow=0;dashed=0;shape=mxgraph.ios7.icons.bluetooth;pointerEvents=1&quot; vertex=&quot;1&quot; parent=&quot;1&quot;&gt;&#xA;          &lt;mxGeometry x=&quot;349.79&quot; y=&quot;146.2&quot; width=&quot;20.21&quot; height=&quot;38.8&quot; as=&quot;geometry&quot; /&gt;&#xA;        &lt;/mxCell&gt;&#xA;        &lt;mxCell id=&quot;5jmNFab9z2XsegrAhkRg-10&quot; value=&quot;&quot; style=&quot;verticalLabelPosition=bottom;verticalAlign=top;html=1;shape=mxgraph.basic.arc;startAngle=0.9017368004336775;endAngle=0.1;rotation=90;&quot; vertex=&quot;1&quot; parent=&quot;1&quot;&gt;&#xA;          &lt;mxGeometry x=&quot;275&quot; y=&quot;170&quot; width=&quot;110&quot; height=&quot;110&quot; as=&quot;geometry&quot; /&gt;&#xA;        &lt;/mxCell&gt;&#xA;        &lt;mxCell id=&quot;5jmNFab9z2XsegrAhkRg-11&quot; value=&quot;&quot; style=&quot;verticalLabelPosition=bottom;verticalAlign=top;html=1;shape=mxgraph.basic.arc;startAngle=0.9017368004336775;endAngle=0.1;rotation=90;&quot; vertex=&quot;1&quot; parent=&quot;1&quot;&gt;&#xA;          &lt;mxGeometry x=&quot;270&quot; y=&quot;175&quot; width=&quot;100&quot; height=&quot;100&quot; as=&quot;geometry&quot; /&gt;&#xA;        &lt;/mxCell&gt;&#xA;        &lt;mxCell id=&quot;5jmNFab9z2XsegrAhkRg-12&quot; value=&quot;&quot; style=&quot;verticalLabelPosition=bottom;verticalAlign=top;html=1;shape=mxgraph.basic.arc;startAngle=0.9017368004336775;endAngle=0.1;rotation=90;&quot; vertex=&quot;1&quot; parent=&quot;1&quot;&gt;&#xA;          &lt;mxGeometry x=&quot;275&quot; y=&quot;185&quot; width=&quot;80&quot; height=&quot;80&quot; as=&quot;geometry&quot; /&gt;&#xA;        &lt;/mxCell&gt;&#xA;        &lt;mxCell id=&quot;5jmNFab9z2XsegrAhkRg-13&quot; value=&quot;&quot; style=&quot;verticalLabelPosition=bottom;verticalAlign=top;html=1;shape=mxgraph.basic.arc;startAngle=0.9017368004336775;endAngle=0.1;rotation=90;&quot; vertex=&quot;1&quot; parent=&quot;1&quot;&gt;&#xA;          &lt;mxGeometry x=&quot;270&quot; y=&quot;190&quot; width=&quot;70&quot; height=&quot;70&quot; as=&quot;geometry&quot; /&gt;&#xA;        &lt;/mxCell&gt;&#xA;      &lt;/root&gt;&#xA;    &lt;/mxGraphModel&gt;&#xA;  &lt;/diagram&gt;&#xA;&lt;/mxfile&gt;&#xA;"><defs/><g><g data-cell-id="0"><g data-cell-id="1"><g data-cell-id="5jmNFab9z2XsegrAhkRg-1"><g><image x="-0.5" y="18.5" width="120" height="120" xlink:href="https://app.diagrams.net/img/lib/clip_art/computers/Laptop_128x128.png"/></g></g><g data-cell-id="5jmNFab9z2XsegrAhkRg-2"><g><image x="519.5" y="3.5" width="94.67" height="120" xlink:href="https://app.diagrams.net/img/lib/allied_telesis/computer_and_terminals/Server_Desktop.svg"/></g></g><g data-cell-id="5jmNFab9z2XsegrAhkRg-3"><g><rect x="490" y="29" width="14.4" height="32.81" fill="none" stroke="none" transform="rotate(90,497.2,45.4)" pointer-events="all"/><path d="M 497.2 29 L 495.12 32.64 L 496.61 32.64 L 496.61 51.27 L 492.82 47.65 C 492.58 47.34 492.4 46.93 492.39 46.52 C 492.39 44.84 492.39 43.84 492.39 43.47 C 493.1 43.22 493.6 42.56 493.6 41.76 C 493.6 40.76 492.79 39.94 491.8 39.94 C 490.81 39.94 490 40.75 490 41.76 C 490 42.55 490.5 43.22 491.21 43.47 L 491.21 46.48 C 491.21 47.3 491.65 48.15 492.17 48.7 C 492.15 48.68 492.13 48.67 492.17 48.7 C 492.18 48.71 496.18 52.55 496.18 52.55 C 496.42 52.85 496.6 53.26 496.6 53.67 L 496.6 55.78 C 495.23 56.06 494.19 57.29 494.19 58.77 C 494.19 60.45 495.54 61.81 497.2 61.81 C 498.86 61.81 500.21 60.45 500.21 58.77 C 500.21 57.29 499.17 56.06 497.79 55.78 L 497.79 53.71 C 497.79 53.7 497.79 53.7 497.79 53.69 L 497.79 49.11 C 497.8 48.7 497.97 48.29 498.22 47.99 C 498.22 47.99 502.22 44.15 502.23 44.14 C 502.27 44.11 502.25 44.13 502.23 44.14 C 502.75 43.6 503.19 42.74 503.19 41.93 L 503.19 39.03 L 504.4 39.03 L 504.4 35.38 L 500.8 35.38 L 500.8 39.03 L 502.01 39.03 C 502.01 39.03 502 39.79 502 41.96 C 501.99 42.38 501.82 42.78 501.58 43.09 L 497.8 46.72 L 497.8 32.64 L 499.28 32.64 L 497.2 29 Z" fill="#000000" style="fill: light-dark(rgb(0, 0, 0), rgb(237, 237, 237));" stroke="none" transform="rotate(90,497.2,45.4)" pointer-events="all"/></g></g><g data-cell-id="5jmNFab9z2XsegrAhkRg-4"><g><path d="M 440 59 L 525.97 59" fill="none" stroke="#000000" style="stroke: light-dark(rgb(0, 0, 0), rgb(255, 255, 255));" stroke-miterlimit="10" pointer-events="stroke"/></g></g><g data-cell-id="5jmNFab9z2XsegrAhkRg-6"><g><image x="289.5" y="-24.78" width="133.82" height="196.56" xlink:href="https://www.espressif.com/sites/default/files/dev-board/ESP32-S3-DevKitC-1%20%E5%A4%A7.png" preserveAspectRatio="none" transform="rotate(-90,356.91,74)"/></g></g><g data-cell-id="5jmNFab9z2XsegrAhkRg-8"><g><rect x="179.79" y="0.2" width="20.21" height="38.8" fill="none" stroke="none" pointer-events="all"/><path d="M 179.79 29.7 L 200 9.5 L 189.89 0.2 L 189.89 39 L 200 29.7 L 179.79 9.5" fill="none" stroke="#0080f0" style="stroke: light-dark(rgb(0, 128, 240), rgb(50, 160, 255));" stroke-width="2" stroke-miterlimit="10" pointer-events="all"/></g></g><g data-cell-id="5jmNFab9z2XsegrAhkRg-10"><g><path d="M 128.16 34.15 C 147.41 20.49 173.23 20.63 192.33 34.5" fill="none" stroke="#000000" style="stroke: light-dark(rgb(0, 0, 0), rgb(255, 255, 255));" stroke-miterlimit="10" transform="rotate(90,160,79)" pointer-events="all"/></g></g><g data-cell-id="5jmNFab9z2XsegrAhkRg-11"><g><path d="M 121.05 38.23 C 138.55 25.81 162.03 25.94 179.39 38.55" fill="none" stroke="#000000" style="stroke: light-dark(rgb(0, 0, 0), rgb(255, 255, 255));" stroke-miterlimit="10" transform="rotate(90,150,79)" pointer-events="all"/></g></g><g data-cell-id="5jmNFab9z2XsegrAhkRg-12"><g><path d="M 121.84 46.38 C 135.84 36.45 154.62 36.55 168.51 46.64" fill="none" stroke="#000000" style="stroke: light-dark(rgb(0, 0, 0), rgb(255, 255, 255));" stroke-miterlimit="10" transform="rotate(90,145,79)" pointer-events="all"/></g></g><g data-cell-id="5jmNFab9z2XsegrAhkRg-13"><g><path d="M 114.74 50.46 C 126.99 41.76 143.42 41.85 155.57 50.68" fill="none" stroke="#000000" style="stroke: light-dark(rgb(0, 0, 0), rgb(255, 255, 255));" stroke-miterlimit="10" transform="rotate(90,135,79)" pointer-events="all"/></g></g></g></g></g></svg>